<svg width="569" height="758" viewBox="0 0 569 758" fill="none" xmlns="http://www.w3.org/2000/svg">
<mask id="mask0_4_37" style="mask-type:luminance" maskUnits="userSpaceOnUse" x="0" y="0" width="569" height="758">
<path d="M315.733 31.6C315.733 23.2192 319.063 15.1816 324.989 9.25543C330.915 3.32928 338.952 0 347.333 0H536.8C540.948 -4.11393e-06 545.055 0.817674 548.886 2.40627C552.717 3.99486 556.198 6.3232 559.129 9.25811C562.06 12.193 564.383 15.6769 565.966 19.5106C567.55 23.3442 568.361 27.4523 568.356 31.6V726.267C568.361 730.414 567.55 734.522 565.966 738.356C564.383 742.19 562.06 745.674 559.129 748.608C556.198 751.543 552.717 753.872 548.886 755.46C545.055 757.049 540.948 757.867 536.8 757.867H31.5556C27.4079 757.867 23.3009 757.049 19.4695 755.46C15.6381 753.872 12.1575 751.543 9.22671 748.608C6.29593 745.674 3.97249 742.19 2.38929 738.356C0.806093 734.522 -0.0058105 730.414 3.13015e-05 726.267V410.489C3.13015e-05 402.12 3.32462 394.094 9.24244 388.176C15.1603 382.258 23.1865 378.933 31.5556 378.933H157.867V221.067C157.867 212.686 161.196 204.648 167.122 198.722C173.048 192.796 181.086 189.467 189.467 189.467H315.733V31.6Z" fill="white"/>
</mask>
<g mask="url(#mask0_4_37)">
<path d="M568.356 0V757.867H315.733V0H568.356Z" fill="url(#paint0_linear_4_37)"/>
<path d="M410.489 221.067V757.867H157.867V189.467H378.889C387.27 189.467 395.307 192.796 401.233 198.722C407.16 204.648 410.489 212.686 410.489 221.067Z" fill="url(#paint1_linear_4_37)"/>
<path d="M0 378.933V757.867H252.622V410.489C252.61 402.116 249.276 394.09 243.351 388.173C237.426 382.257 229.395 378.933 221.022 378.933H0Z" fill="url(#paint2_linear_4_37)"/>
</g>
<defs>
<linearGradient id="paint0_linear_4_37" x1="265.2" y1="4" x2="598.311" y2="710.133" gradientUnits="userSpaceOnUse">
<stop stop-color="#E6AD10"/>
<stop offset="1" stop-color="#C87E0E"/>
</linearGradient>
<linearGradient id="paint1_linear_4_37" x1="137.022" y1="200.222" x2="417.2" y2="743.556" gradientUnits="userSpaceOnUse">
<stop stop-color="#F6D751"/>
<stop offset="1" stop-color="#E6AD10"/>
</linearGradient>
<linearGradient id="paint2_linear_4_37" x1="34.8444" y1="364.222" x2="189.644" y2="731.156" gradientUnits="userSpaceOnUse">
<stop stop-color="#F9E589"/>
<stop offset="1" stop-color="#F6D751"/>
</linearGradient>
</defs>
</svg>
