<svg width="2361" height="1064" viewBox="0 0 2361 1064" fill="none" xmlns="http://www.w3.org/2000/svg">
<path fill-rule="evenodd" clip-rule="evenodd" d="M162.667 576.493C159.619 554.12 155.559 542.953 146.403 530.749C133.187 512.461 112.85 503.305 86.4175 503.305C58.9606 503.305 37.6123 512.461 22.3728 531.76C7.12041 549.062 0 573.458 0 600.915C0 660.9 33.5528 699.537 85.4059 699.537C111.838 699.537 134.211 688.344 148.439 669.032C156.571 657.839 159.619 648.696 162.667 629.358L118.946 627.335C115.898 651.757 104.705 662.924 85.3929 662.924C60.9968 662.924 49.8039 644.636 49.8039 602.938C49.8039 560.229 60.9838 538.881 84.3813 538.881C96.5858 538.881 106.754 544.99 110.814 555.171C113.862 562.291 115.898 567.349 115.898 579.567L162.667 576.493ZM446.342 541.942V506.34H310.094V696.463H446.342V658.838H355.851V617.179H427.017V581.577H355.851V541.942H446.342ZM639.526 621.226H671.043L700.523 696.463H750.34L714.764 612.082C723.907 608.036 727.98 605.973 732.052 600.915C742.221 591.746 747.305 577.505 747.305 563.303C747.305 546.001 740.184 528.725 727.98 518.544C715.788 509.401 702.572 506.353 678.163 506.353H594.793V696.476H639.539L639.526 621.226ZM639.526 539.892H665.959C683.234 539.892 687.307 540.904 692.391 544.99C698.487 549.062 701.535 556.182 701.535 563.303C701.535 571.435 697.475 580.579 690.355 584.651C685.27 587.686 681.198 588.698 666.97 588.698H639.526V539.892ZM1024.86 506.34H885.563V543.965H932.331V696.463H978.089V543.965H1024.86V506.34ZM1165.15 696.463H1209.9V506.34H1165.15V696.463ZM1504.75 543.965V506.34H1369.53V696.463H1416.3V622.263H1486.44V586.674H1416.3V543.965H1504.75ZM1649.12 696.463H1693.85V506.34H1649.12V696.463ZM1989.73 541.942V506.34H1853.5V696.463H1989.73V658.838H1899.24V617.179H1970.42V581.577H1899.24V541.942H1989.73ZM2138.17 506.34V696.463H2203.25C2232.73 696.463 2254.07 687.32 2270.36 669.032C2285.61 650.719 2293.74 627.335 2293.74 600.915C2293.74 573.458 2285.61 550.074 2269.35 532.798C2252.04 512.461 2232.75 506.34 2196.13 506.34H2138.17ZM2181.89 540.904H2201.19C2216.44 540.904 2226.62 546.001 2234.76 556.182C2243.5 569.066 2248.12 584.307 2247.98 599.878C2247.98 617.179 2242.89 633.443 2234.76 645.648C2226.62 655.803 2215.43 660.9 2200.18 660.9H2181.89V540.904Z" fill="#F5F5F5"/>
<path d="M3.04785 798.146H2286.61" stroke="#F5F5F5" stroke-width="20.3885" stroke-miterlimit="2.613"/>
<path fill-rule="evenodd" clip-rule="evenodd" d="M812.362 994.366H844.89C868.274 994.366 882.515 990.319 892.683 982.187C903.863 972.032 910.984 956.754 910.984 942.539C910.984 927.26 902.852 912.034 891.659 904.901C883.527 898.818 873.358 896.769 853.022 896.769H808.289L780.832 1060.46H801.169L812.362 994.366ZM814.385 978.102L825.565 913.046H860.142C867.263 913.046 875.395 915.069 879.454 918.117C885.55 922.189 889.622 932.358 889.622 942.539C889.622 955.742 883.514 967.947 874.37 973.044C867.263 977.09 860.142 978.115 836.758 978.115L814.385 978.102ZM1007.57 1060.45V1055.38C1007.57 1051.3 1008.58 1043.17 1009.61 1033C1018.76 977.077 1018.76 974.029 1018.76 967.921C1018.76 948.596 998.426 935.393 970.969 935.393C946.573 935.393 928.272 945.548 919.116 962.823L937.416 970.956C945.548 955.703 955.716 949.607 971.993 949.607C990.294 949.607 999.45 957.765 999.45 973.018C999.45 977.064 999.45 979.101 998.426 985.196H980.125C962.837 985.196 948.609 986.208 940.477 989.269C919.129 995.378 906.924 1009.61 906.924 1027.91C906.924 1048.24 923.188 1063.49 945.561 1063.49C963.861 1063.49 978.102 1055.36 991.318 1036.04C989.282 1043.16 988.27 1047.23 988.27 1054.35C988.27 1055.36 988.27 1057.39 989.295 1060.43H1007.57V1060.45ZM996.39 999.45C994.353 1010.64 992.317 1016.75 987.233 1024.88C977.065 1039.12 962.824 1048.27 948.596 1048.27C935.38 1048.27 927.248 1041.15 927.248 1027.93C927.248 1017.78 933.344 1009.64 944.536 1004.55C952.668 1000.47 963.848 998.438 980.125 998.438C986.221 998.438 989.269 999.45 996.39 999.45ZM1056.37 1060.45L1060.45 1033.02C1064.51 1008.59 1067.55 996.415 1072.64 985.209C1082.81 964.899 1095.01 954.705 1111.28 954.705H1116.36L1120.43 935.405H1115.35C1096.02 935.405 1084.84 945.561 1070.6 970.969L1076.71 939.452H1057.39L1037.05 1060.43H1056.37V1060.45ZM1160.07 953.706H1187.52L1189.55 939.465H1162.12L1167.19 907.948L1148.89 909.972L1144.83 939.452H1125.52L1123.49 953.693H1141.79L1131.63 1010.64C1128.58 1029.94 1128.58 1029.94 1128.58 1037.06C1128.58 1054.36 1139.76 1062.5 1159.07 1062.5H1167.2L1173.31 1061.48H1177.38L1179.41 1046.23L1175.33 1047.24C1170.26 1047.24 1166.19 1048.26 1162.13 1048.26C1152.97 1048.26 1146.88 1043.16 1146.88 1035.03C1146.88 1031.99 1147.89 1025.88 1148.9 1019.77L1160.07 953.706ZM1289.21 1060.45L1301.39 990.306C1302.42 982.174 1303.44 975.054 1303.44 969.97C1303.44 950.671 1288.18 935.418 1267.85 935.418C1249.53 935.418 1236.33 945.574 1225.14 965.897L1229.21 939.478H1212.95L1192.61 1060.46H1210.9L1218.02 1016.76C1222.09 994.366 1225.14 982.187 1231.25 972.032C1239.38 957.791 1250.55 950.684 1262.76 950.684C1275.99 950.684 1285.14 959.828 1285.14 973.057C1285.14 976.092 1285.14 983.212 1283.11 990.332L1271.92 1060.47H1289.21V1060.45ZM1410.19 1024.88C1397.99 1042.16 1388.84 1048.27 1373.59 1048.27C1354.29 1048.27 1341.06 1033.02 1341.06 1010.66C1341.06 1007.6 1342.07 1005.56 1342.07 1001.51H1431.54C1431.54 995.404 1432.55 992.343 1432.55 987.272C1432.55 954.718 1414.26 935.418 1383.76 935.418C1348.17 935.418 1321.72 966.935 1321.72 1008.61C1321.72 1042.17 1342.06 1063.52 1373.58 1063.52C1395.95 1063.52 1412.21 1054.38 1425.43 1032L1410.19 1024.88ZM1344.1 987.272C1349.19 964.899 1364.43 949.633 1383.77 949.633C1401.05 949.633 1413.22 962.863 1413.22 981.176V987.284L1344.1 987.272ZM1463.05 1060.45L1468.15 1033.02C1471.19 1008.59 1475.27 996.415 1480.33 985.209C1489.5 964.899 1501.68 954.705 1517.97 954.705H1524.05L1527.11 935.405H1523.04C1503.74 935.405 1491.52 945.561 1477.3 970.969L1483.4 939.452H1465.09L1444.78 1060.43H1463.05V1060.45Z" fill="#F5F5F5"/>
<path fill-rule="evenodd" clip-rule="evenodd" d="M38.6373 219.63L5.08447 372.128H112.863L150.476 219.617L162.667 171.823L163.692 219.617L166.74 372.128H242.989L319.238 219.617L343.634 171.823L332.454 219.617L298.915 372.128H406.693L440.246 219.617L458.546 135.236L489.051 0H341.611L276.542 135.236L240.953 207.412L238.916 135.236L234.857 0H87.4295L56.9246 135.236L38.6373 219.63ZM584.612 135.249L592.744 95.5872H493.098L484.966 135.249L465.654 219.63L431.076 371.13L531.735 372.141L565.288 219.63L584.612 135.249ZM858.106 135.249C842.853 111.851 814.385 91.5276 761.52 88.4797C704.583 85.4318 659.85 104.744 628.334 135.249C602.913 158.633 585.637 189.125 577.505 219.63C558.193 295.879 591.733 378.237 688.332 380.273C826.602 382.31 858.119 271.483 858.119 270.459H754.413C751.378 274.531 736.112 311.132 705.607 310.12C667.995 309.095 664.934 262.326 679.175 219.617C691.38 186.077 715.776 155.572 743.22 154.548C775.761 153.523 772.7 194.196 770.677 198.256H874.383C874.37 196.246 876.406 163.704 858.106 135.249ZM1072.64 135.249L1083.82 91.5276C1066.53 91.5276 1052.3 93.5509 1037.05 98.648C1018.76 104.744 1003.51 114.912 991.305 130.165L998.426 95.6001H908.96L899.804 135.262L880.492 219.643L846.926 372.128H941.488L963.848 273.506C968.945 250.122 977.078 232.846 985.197 219.617C1006.54 186.077 1034 180.98 1049.25 179.968C1043.16 193.185 1038.07 206.401 1035.03 219.617C1014.69 295.866 1049.25 377.213 1152.97 380.26C1232.27 383.308 1291.24 340.612 1316.68 289.77C1313.62 322.299 1327.84 380.261 1456.98 381.272C1601.35 383.308 1613.53 291.807 1612.52 271.47C1611.51 247.061 1603.37 230.797 1591.17 219.604C1566.77 197.231 1526.11 193.172 1489.51 185.04C1444.78 175.883 1453.92 140.307 1493.56 140.307C1536.27 140.307 1526.11 175.896 1526.11 175.896H1621.66C1621.66 173.86 1626.76 154.548 1618.63 135.236C1610.49 110.827 1583.04 84.3942 1503.75 83.3826C1446.8 83.3826 1393.94 96.5988 1370.55 135.236C1365.46 144.379 1361.38 154.548 1360.37 166.752C1356.33 189.125 1363.43 206.401 1374.61 219.617C1401.06 250.122 1453.92 259.278 1471.2 262.313C1527.13 272.482 1510.87 318.239 1470.19 318.239C1410.2 319.251 1425.46 276.554 1425.46 276.554H1239.39L1322.76 248.086C1330.89 245.038 1335.99 241.99 1337 234.869C1338.01 229.785 1339.02 224.701 1340.06 219.617C1343.1 188.1 1337 158.62 1320.74 135.236C1301.41 106.767 1267.87 87.4422 1220.07 84.3943C1162.13 81.3464 1115.36 102.695 1082.82 135.236C1077.74 140.32 1072.65 145.404 1068.59 151.5L1072.64 135.249ZM1912.47 135.249C1893.15 106.78 1860.62 87.4551 1812.81 84.4072C1754.85 82.371 1708.09 102.708 1675.56 135.249C1651.14 158.633 1634.88 189.125 1627.76 219.63C1608.46 295.879 1643.01 376.201 1746.72 380.273C1858.55 385.358 1925.66 299.952 1932.78 219.63C1934.83 189.125 1928.72 158.633 1912.47 135.249ZM2274.4 135.249L2283.55 95.5872H2235.77L2250.01 28.4816H2158.51L2144.27 95.5872H2085.29L2086.3 88.4668C2091.4 68.1302 2093.42 55.9256 2124.94 55.9256L2135.1 4.0725C2135.1 4.0725 2057.84 -5.07119 2026.32 18.3133C2005.98 34.5774 1997.85 53.9023 1988.71 95.5872H1938.88L1930.74 135.249L1924.64 159.658H1975.48L1962.25 219.63L1929.72 371.13H2028.34L2061.91 219.63L2075.11 159.658H2130.02L2116.8 219.63L2099.52 298.94C2091.39 335.541 2103.57 352.829 2115.78 360.961C2143.22 379.262 2222.53 370.118 2222.53 370.118L2237.78 307.085C2237.78 307.085 2199.14 311.145 2195.07 300.976C2193.05 292.844 2195.07 286.736 2196.11 280.653L2209.33 219.643L2222.54 159.671H2269.32L2274.4 135.249ZM2306.96 135.249C2304.99 131.48 2303.94 127.297 2303.9 123.044C2303.9 108.803 2316.1 97.6363 2330.34 97.6363C2344.58 97.6363 2355.75 108.816 2355.75 123.044C2355.75 127.117 2354.74 131.176 2353.73 135.249C2348.63 143.368 2340.5 149.477 2330.34 149.477C2320.15 149.464 2311.01 143.368 2306.96 135.249ZM2357.77 135.249C2359.82 131.176 2360.83 127.117 2360.83 123.044C2360.83 106.78 2346.59 93.5638 2330.33 93.5638C2313.03 93.5638 2299.83 106.793 2299.83 123.044C2299.83 127.117 2300.84 131.176 2301.85 135.249C2306.95 145.417 2317.1 153.549 2330.32 153.549C2342.52 153.536 2353.71 145.404 2357.77 135.249ZM2321.16 135.249L2324.22 124.056H2329.32L2333.36 135.249L2335.39 138.284H2340.49L2339.47 135.249L2334.38 124.056C2339.47 124.056 2343.52 119.983 2344.56 114.899C2344.56 109.815 2341.5 105.742 2334.38 105.742L2323.21 106.767L2316.09 135.236L2315.08 138.271H2320.15L2321.16 135.249ZM2339.47 114.899C2339.47 119.983 2333.36 119.983 2329.32 119.983H2325.25L2326.26 109.815H2333.38C2337.45 109.815 2339.47 110.84 2339.47 114.899ZM615.117 0.0129626H514.459L501.23 59.9981H600.877L615.117 0.0129626ZM1138.72 219.63C1151.94 179.981 1180.4 144.392 1211.92 149.477C1239.38 153.549 1246.5 185.066 1241.4 219.63C1233.27 266.399 1199.73 318.252 1159.04 310.133C1127.55 303 1124.49 259.279 1138.72 219.63ZM1731.46 219.63C1744.69 179.981 1773.16 144.392 1804.68 149.477C1832.14 153.549 1840.27 185.066 1834.16 219.63C1826.03 266.399 1793.5 318.252 1752.83 310.133C1720.3 303 1717.24 259.279 1731.46 219.63Z" fill="white"/>
</svg>
